<svg xmlns="http://www.w3.org/2000/svg" viewBox="0 0 192 21"><g><path fill="#FFFFFF" d="M12.6 14.8h-.1L8-.4H.3V21h5.1v-9.3c0-1.5-.1-3.5-.3-6.1h.1L9.6 21h5.5l4.3-15.4h.1c-.1 2.3-.2 3.8-.2 4.4v11h5.3V-.4H17l-4.4 15.2zM39-.8c-3.4 0-6 .9-7.8 2.8s-2.7 4.6-2.7 8.2c0 3.6.9 6.3 2.7 8.2s4.4 2.8 7.7 2.8c3.4 0 6-.9 7.8-2.8s2.7-4.6 2.7-8.2c0-3.6-.9-6.4-2.6-8.2S42.4-.8 39-.8zM42.2 15c-.7 1-1.8 1.5-3.3 1.5-2.9 0-4.3-2.1-4.3-6.2C34.6 6.1 36.1 4 39 4c1.4 0 2.5.5 3.2 1.5s1.1 2.6 1.1 4.7c0 2.2-.4 3.8-1.1 4.8zM60.7-.4h-7.4V21h6.9c3.6 0 6.3-1 8.3-2.9s3-4.7 3-8.3c0-3.3-.9-5.9-2.8-7.6s-4.5-2.6-8-2.6zm3.6 15.1c-.8 1-2.1 1.5-3.9 1.5h-1.3v-12h1.7c1.6 0 2.8.5 3.5 1.4S65.5 8 65.5 10c0 2.1-.4 3.7-1.2 4.7zM87.7 12.1c0 1.5-.3 2.7-.8 3.3-.5.7-1.4 1-2.6 1-1.1 0-1.9-.3-2.5-1s-.8-1.7-.8-3.2V-.4h-5.8v13c0 2.8.8 5 2.4 6.4s3.8 2.2 6.7 2.2c3 0 5.3-.8 6.9-2.3 1.6-1.5 2.4-3.7 2.4-6.5V-.4h-5.8v12.5zM103.7 4.3c.3-.3.9-.4 1.6-.4 1.5 0 3.2.5 5.2 1.4l1.8-4.5c-2.3-1-4.6-1.5-6.8-1.5-2.5 0-4.5.6-5.9 1.7s-2.2 2.6-2.2 4.6c0 1.1.2 2 .5 2.7.3.8.9 1.5 1.6 2.1.7.6 1.7 1.2 3.1 1.8 1.5.7 2.5 1.2 2.8 1.4s.6.4.8.7c.2.2.2.5.2.8 0 .5-.2.9-.6 1.2s-1 .4-1.9.4c-1 0-2.1-.2-3.3-.5s-2.3-.8-3.4-1.3v5.2c1 .5 2.1.8 3 1 1 .2 2.2.3 3.6.3 1.7 0 3.2-.3 4.5-.9 1.3-.6 2.2-1.4 2.9-2.4.7-1 1-2.2 1-3.5 0-1.4-.4-2.6-1.1-3.6-.7-1-2-1.8-3.8-2.7-1.9-.9-3.1-1.5-3.5-1.8-.4-.3-.7-.7-.7-1.1.1-.5.3-.8.6-1.1zM124.1 16.5c-.5 1.4-.8 2.2-.8 2.7h-.1c-.1-.6-.5-1.8-1.1-3.6l-2.9-7.9H117l5.1 13.4h2.4l5.1-13.4h-2.2c-1.7 4.5-2.8 7.4-3.3 8.8zM137.3 7.4c-1.8 0-3.2.6-4.3 1.9-1.1 1.3-1.6 3-1.6 5.1 0 2.1.6 3.8 1.7 5 1.1 1.2 2.7 1.8 4.7 1.8.9 0 1.7-.1 2.3-.2.6-.1 1.3-.4 2-.7v-1.8c-1.4.6-2.8.9-4.3.9-1.4 0-2.4-.4-3.2-1.2-.8-.8-1.1-2-1.2-3.6h9.2v-1.3c0-1.8-.5-3.3-1.5-4.4-.8-1-2.1-1.5-3.8-1.5zm-3.7 5.6c.1-1.2.5-2.2 1.1-2.9.6-.7 1.5-1 2.6-1s1.9.3 2.4 1c.6.7.9 1.7.9 2.9h-7zM149.9 8.1c-.7.5-1.3 1.1-1.8 2h-.1l-.2-2.5h-1.7V21h2v-7.2c0-1.3.4-2.4 1.2-3.3.8-.9 1.7-1.3 2.8-1.3.4 0 .9.1 1.5.2l.3-1.9c-.5-.1-1-.1-1.6-.1-.9 0-1.7.2-2.4.7zM160.7 13.4c-1.2-.4-1.9-.8-2.3-1-.4-.2-.7-.5-.9-.7-.2-.3-.3-.6-.3-.9 0-.5.2-.9.7-1.2.5-.3 1.2-.5 2.2-.5 1.1 0 2.3.3 3.6.8l.7-1.6c-1.4-.6-2.8-.9-4.2-.9-1.5 0-2.8.3-3.6.9-.9.6-1.3 1.5-1.3 2.6 0 .6.1 1.1.4 1.6.3.4.6.8 1.2 1.2.5.3 1.4.8 2.7 1.2 1.3.5 2.2.9 2.6 1.3.5.4.7.8.7 1.3 0 .7-.3 1.2-.9 1.5-.6.3-1.4.5-2.4.5-.7 0-1.4-.1-2.1-.3s-1.4-.4-2.1-.8v1.9c1 .6 2.4.8 4.2.8 1.7 0 3-.3 3.9-1 .9-.7 1.4-1.6 1.4-2.9 0-.9-.3-1.6-.8-2.2s-1.8-1-3.4-1.6zM177.2 14.7c0 1.7-.3 3-1 3.7-.6.8-1.7 1.1-3.1 1.1-1.1 0-1.8-.3-2.3-.8-.5-.5-.7-1.4-.7-2.4V7.6H168v8.8c0 1.7.4 2.9 1.2 3.7.8.8 2 1.2 3.7 1.2.9 0 1.8-.2 2.5-.5s1.3-.9 1.7-1.5h.1l.3 1.8h1.7V7.6h-2v7.1zM190.9 15.1c-.6-.6-1.6-1.2-3.2-1.7-1.2-.4-1.9-.8-2.3-1-.4-.2-.7-.5-.9-.7-.2-.3-.3-.6-.3-.9 0-.5.2-.9.7-1.2.5-.3 1.2-.5 2.2-.5 1.1 0 2.3.3 3.6.8l.7-1.6c-1.4-.6-2.8-.9-4.2-.9-1.5 0-2.8.3-3.6.9-.9.6-1.3 1.5-1.3 2.6 0 .6.1 1.1.4 1.6.3.4.6.8 1.2 1.2.5.3 1.4.8 2.7 1.2 1.3.5 2.2.9 2.6 1.3.5.4.7.8.7 1.3 0 .7-.3 1.2-.9 1.5-.6.3-1.4.5-2.4.5-.7 0-1.4-.1-2.1-.3s-1.4-.4-2.1-.8v1.9c1 .6 2.4.8 4.2.8 1.7 0 3-.3 3.9-1 .9-.7 1.4-1.6 1.4-2.9-.1-.7-.4-1.5-1-2.1z"/></g></svg>
